<?xml version="1.0" standalone="no"?>
<!DOCTYPE svg PUBLIC "-//W3C//DTD SVG 20010904//EN"
 "http://www.w3.org/TR/2001/REC-SVG-20010904/DTD/svg10.dtd">
<svg version="1.0" xmlns="http://www.w3.org/2000/svg"
 width="500.000000pt" height="500.000000pt" viewBox="0 0 500.000000 500.000000"
 preserveAspectRatio="xMidYMid meet">

<g transform="translate(0.000000,500.000000) scale(0.100000,-0.100000)"
fill="#000000" stroke="none">
<path d="M2307 3153 c-4 -3 -7 -62 -7 -130 l0 -123 90 0 c83 0 90 1 90 20 0
18 -7 20 -65 20 l-65 0 0 110 c0 100 -2 110 -18 110 -10 0 -22 -3 -25 -7z"/>
<path d="M2586 3151 c-7 -11 -96 -240 -96 -246 0 -3 11 -5 24 -5 18 0 27 8 35
30 9 28 14 30 56 30 43 0 48 -3 58 -30 8 -21 18 -30 34 -30 13 0 23 3 23 7 0
4 -21 62 -46 130 -36 95 -51 123 -65 123 -10 0 -20 -4 -23 -9z m48 -128 c7
-21 4 -23 -28 -23 l-35 0 16 46 c16 46 16 46 28 23 7 -13 16 -34 19 -46z"/>
<path d="M1032 3018 l3 -33 425 0 425 0 3 33 3 32 -431 0 -431 0 3 -32z"/>
<path d="M3120 3020 l0 -30 425 0 425 0 0 30 0 30 -425 0 -425 0 0 -30z"/>
<path d="M790 2490 l0 -220 40 0 40 0 0 90 0 90 90 0 90 0 0 35 0 34 -87 3
-88 3 -3 58 -3 57 106 0 105 0 0 35 0 35 -145 0 -145 0 0 -220z"/>
<path d="M1140 2490 l0 -220 45 0 45 0 0 75 0 75 43 0 c42 0 43 0 87 -75 l44
-75 49 0 c55 0 56 -7 -14 106 -35 58 -36 61 -18 73 31 19 59 73 59 114 0 47
-20 87 -60 121 -30 25 -36 26 -156 26 l-124 0 0 -220z m228 134 c16 -11 22
-25 22 -53 0 -59 -17 -74 -94 -79 l-66 -4 0 76 0 76 58 0 c36 0 66 -6 80 -16z"/>
<path d="M1560 2563 c0 -122 4 -155 19 -188 34 -73 85 -105 171 -105 86 0 137
32 171 105 15 33 19 66 19 188 l0 147 -40 0 -40 0 0 -122 c0 -140 -9 -184 -46
-219 -32 -30 -93 -32 -125 -4 -40 36 -49 76 -49 215 l0 130 -40 0 -40 0 0
-147z"/>
<path d="M2030 2490 l0 -220 45 0 45 0 0 220 0 220 -45 0 -45 0 0 -220z"/>
<path d="M2170 2675 l0 -35 70 0 70 0 0 -185 0 -185 45 0 45 0 0 185 0 185 70
0 70 0 0 35 0 35 -185 0 -185 0 0 -35z"/>
<path d="M2600 2490 l0 -220 155 0 155 0 0 40 0 40 -115 0 -115 0 0 180 0 180
-40 0 -40 0 0 -220z"/>
<path d="M3005 2499 c-44 -116 -81 -215 -83 -220 -2 -5 16 -9 41 -9 l44 0 19
53 19 52 80 3 81 3 18 -56 19 -55 45 0 c31 0 43 4 40 13 -3 6 -40 105 -83 220
l-79 207 -40 0 -41 0 -80 -211z m154 23 l30 -82 -64 0 -65 0 19 48 c10 26 24
64 31 85 6 21 14 37 15 35 2 -2 17 -41 34 -86z"/>
<path d="M3380 2490 l0 -220 45 0 45 0 0 141 0 142 113 -142 c108 -136 113
-141 150 -141 l37 0 0 220 0 220 -45 0 -44 0 -3 -141 -3 -142 -110 141 c-106
136 -111 141 -147 142 l-38 0 0 -220z"/>
<path d="M3860 2491 l0 -221 98 0 c125 0 167 12 218 64 95 94 80 272 -28 343
-39 26 -50 28 -165 31 l-123 4 0 -221z m215 135 c47 -20 75 -69 75 -129 0 -99
-47 -147 -144 -147 l-56 0 0 145 0 145 45 0 c25 0 61 -6 80 -14z"/>
<path d="M1210 1926 c0 -89 1 -96 20 -96 18 0 20 7 21 58 l1 57 16 -58 c20
-73 40 -72 63 3 l17 55 1 -57 c1 -51 3 -58 21 -58 19 0 20 7 20 95 l0 95 -29
0 c-27 0 -29 -4 -41 -60 -7 -33 -16 -60 -19 -60 -4 0 -13 26 -21 58 -13 51
-18 57 -42 60 l-28 3 0 -95z"/>
<path d="M1420 1925 l0 -95 50 0 c37 0 50 4 50 14 0 9 -12 16 -32 18 -25 2
-34 8 -36 26 -3 19 1 22 27 22 40 0 42 27 4 32 -20 2 -29 9 -31 26 -3 19 1 22
32 22 25 0 36 4 36 15 0 11 -12 15 -50 15 l-50 0 0 -95z"/>
<path d="M1550 1925 c0 -88 1 -95 20 -95 16 0 20 7 20 35 0 19 4 35 9 35 5 0
15 -16 21 -35 8 -24 18 -35 31 -35 23 0 24 12 5 48 -12 24 -12 30 0 47 35 48
3 95 -64 95 l-42 0 0 -95z m75 35 c0 -16 -6 -26 -17 -28 -14 -3 -18 3 -18 28
0 25 4 31 18 28 11 -2 17 -12 17 -28z"/>
<path d="M1715 2000 c-27 -30 -27 -120 0 -150 27 -30 85 -24 102 10 11 21 10
26 -4 29 -9 1 -20 -4 -25 -13 -12 -21 -44 -21 -52 0 -3 9 -6 31 -6 49 0 18 3
40 6 49 8 21 40 21 52 0 5 -9 16 -14 25 -13 14 3 15 8 4 29 -17 34 -75 40
-102 10z"/>
<path d="M1897 2013 c-3 -4 -14 -39 -26 -78 -12 -38 -24 -78 -27 -87 -4 -13 0
-18 15 -18 11 0 22 9 26 20 4 13 15 20 32 20 16 0 27 -7 30 -20 3 -11 14 -20
24 -20 22 0 21 11 -16 120 -20 59 -44 86 -58 63z m32 -100 c1 -7 -6 -13 -14
-13 -17 0 -18 4 -8 39 6 23 7 23 14 5 4 -10 8 -25 8 -31z"/>
<path d="M2010 1925 l0 -95 40 0 c58 0 80 26 80 95 0 69 -22 95 -80 95 l-40 0
0 -95z m82 40 c15 -34 0 -99 -24 -103 -16 -3 -18 5 -18 62 0 52 3 66 15 66 9
0 21 -11 27 -25z"/>
<path d="M2176 1998 c-10 -13 -16 -43 -16 -73 0 -65 20 -95 64 -95 49 0 66 25
66 97 0 45 -4 64 -18 76 -27 25 -78 22 -96 -5z m74 -27 c24 -46 1 -121 -34
-108 -12 5 -16 19 -16 60 0 30 3 57 7 60 12 13 32 7 43 -12z"/>
<path d="M2390 1925 l0 -95 35 0 c52 0 85 36 85 93 0 63 -29 97 -81 97 l-39 0
0 -95z m68 53 c17 -17 15 -93 -3 -108 -24 -20 -35 -2 -35 61 0 60 11 74 38 47z"/>
<path d="M2540 1925 l0 -95 50 0 c37 0 50 4 50 14 0 9 -12 16 -32 18 -25 2
-34 8 -36 26 -3 19 1 22 27 22 40 0 42 27 4 32 -20 2 -29 9 -31 26 -3 19 1 22
32 22 25 0 36 4 36 15 0 11 -12 15 -50 15 l-50 0 0 -95z"/>
<path d="M2730 1925 c0 -88 1 -95 20 -95 17 0 20 7 20 40 0 38 2 40 30 40 20
0 30 5 30 15 0 10 -10 15 -30 15 -25 0 -30 4 -30 25 0 22 4 25 35 25 24 0 35
5 35 15 0 12 -13 15 -55 15 l-55 0 0 -95z"/>
<path d="M2860 1925 c0 -88 1 -95 20 -95 16 0 20 7 20 35 0 19 4 35 9 35 5 0
15 -16 21 -35 8 -24 18 -35 31 -35 23 0 24 12 5 48 -12 24 -12 30 0 47 35 48
3 95 -64 95 l-42 0 0 -95z m75 35 c0 -16 -6 -26 -17 -28 -14 -3 -18 3 -18 28
0 25 4 31 18 28 11 -2 17 -12 17 -28z"/>
<path d="M3000 1953 c0 -87 15 -117 59 -121 56 -6 71 18 71 110 0 71 -2 78
-20 78 -17 0 -19 -8 -22 -77 -3 -70 -5 -78 -23 -78 -18 0 -20 8 -23 78 -3 69
-5 77 -22 77 -18 0 -20 -7 -20 -67z"/>
<path d="M3150 2005 c0 -9 9 -15 25 -15 25 0 25 -1 25 -80 0 -73 2 -80 20 -80
18 0 20 7 20 80 0 73 2 80 20 80 11 0 20 7 20 15 0 12 -14 15 -65 15 -51 0
-65 -3 -65 -15z"/>
<path d="M3341 1982 c-6 -21 -20 -64 -30 -95 l-20 -57 20 0 c12 0 23 8 26 20
4 14 14 20 33 20 19 0 29 -6 33 -20 3 -12 14 -20 26 -20 17 0 19 4 12 23 -5
12 -19 55 -30 95 -17 57 -26 72 -41 72 -14 0 -22 -11 -29 -38z m41 -57 c4 -19
1 -25 -12 -25 -13 0 -16 6 -12 25 2 14 8 25 12 25 4 0 10 -11 12 -25z"/>
<path d="M3475 1996 c-21 -31 -9 -56 40 -85 19 -11 35 -25 35 -31 0 -19 -32
-24 -45 -7 -15 20 -45 22 -45 4 0 -23 35 -47 67 -47 64 0 72 68 13 108 -42 28
-48 40 -25 49 11 4 21 0 27 -10 12 -23 38 -22 38 1 0 47 -78 60 -105 18z"/>
<path d="M3675 1983 c32 -73 35 -84 35 -119 0 -27 4 -34 20 -34 16 0 20 7 20
38 1 20 12 62 25 92 13 30 19 57 14 58 -20 8 -37 -8 -44 -37 -9 -40 -20 -39
-31 2 -7 22 -17 33 -32 35 -23 3 -23 3 -7 -35z"/>
<path d="M1914 1623 c28 -114 48 -163 66 -163 15 0 23 15 39 68 36 120 36 122
12 122 -17 0 -22 -10 -33 -60 -6 -33 -15 -60 -18 -60 -3 0 -12 27 -18 60 -11
50 -16 60 -33 60 -18 0 -20 -4 -15 -27z"/>
<path d="M2070 1555 l0 -95 55 0 c42 0 55 3 55 15 0 10 -11 15 -35 15 -31 0
-35 3 -35 25 0 21 5 25 30 25 20 0 30 5 30 15 0 10 -10 15 -30 15 -25 0 -30 4
-30 25 0 22 4 25 35 25 24 0 35 5 35 15 0 12 -13 15 -55 15 l-55 0 0 -95z"/>
<path d="M2210 1556 c0 -79 3 -96 15 -96 10 0 15 11 15 35 0 22 5 35 13 35 7
0 19 -16 26 -35 8 -24 19 -35 32 -35 23 0 23 -1 5 40 -12 29 -11 37 3 61 14
26 15 31 1 56 -13 24 -23 28 -63 31 l-47 3 0 -95z m75 34 c0 -18 -6 -26 -22
-28 -20 -3 -23 1 -23 28 0 27 3 31 23 28 16 -2 22 -10 22 -28z"/>
<path d="M2350 1555 l0 -95 39 0 c62 0 86 26 86 95 0 69 -24 95 -86 95 l-39 0
0 -95z m78 53 c7 -7 12 -30 12 -53 0 -42 -13 -65 -37 -65 -9 0 -13 18 -13 65
0 66 10 81 38 53z"/>
<path d="M2500 1583 c0 -87 15 -117 59 -121 56 -6 71 18 71 110 0 71 -2 78
-20 78 -17 0 -19 -8 -22 -77 -3 -70 -5 -78 -23 -78 -18 0 -20 8 -23 78 -3 69
-5 77 -22 77 -18 0 -20 -7 -20 -67z"/>
<path d="M2660 1555 c0 -88 1 -95 20 -95 16 0 20 7 20 35 0 19 4 35 9 35 5 0
15 -16 21 -35 8 -24 18 -35 31 -35 23 0 24 12 5 48 -12 24 -12 30 0 47 35 48
3 95 -64 95 l-42 0 0 -95z m75 35 c0 -16 -6 -26 -17 -28 -14 -3 -18 3 -18 28
0 25 4 31 18 28 11 -2 17 -12 17 -28z"/>
<path d="M2827 1561 c-32 -107 -32 -101 -8 -101 10 0 21 9 24 20 3 13 14 20
30 20 17 0 28 -7 32 -20 3 -11 15 -20 26 -20 10 0 19 1 19 3 0 1 -13 43 -29
92 -22 68 -34 91 -48 93 -16 2 -24 -12 -46 -87z m57 -3 c5 -21 3 -28 -9 -28
-16 0 -19 17 -9 45 8 19 9 18 18 -17z"/>
<path d="M2982 1638 c-6 -6 -12 -25 -12 -40 0 -22 9 -33 40 -53 22 -14 40 -30
40 -35 0 -19 -33 -24 -45 -7 -13 18 -45 23 -45 7 0 -20 41 -50 68 -50 69 0 81
77 17 107 -21 10 -35 24 -35 35 0 23 26 24 38 1 6 -10 16 -14 27 -9 16 6 16 8
2 29 -17 25 -75 35 -95 15z"/>
</g>
</svg>
